<svg width="525" height="164" viewBox="0 0 525 164" fill="none" xmlns="http://www.w3.org/2000/svg">
<path d="M10 147L10 42C10 28.1929 21.1929 17 35 17H75L75 122C75 135.807 63.8071 147 50 147H10Z" fill="#3442FE"/>
<path d="M10 42C10 28.1929 21.1929 17 35 17H140V57C140 70.8071 128.807 82 115 82H10V42Z" fill="#401DD2"/>
<path d="M95 112C95 106.477 99.4772 102 105 102H140V137C140 142.523 135.523 147 130 147H95V112Z" fill="#8F33F0"/>
<path d="M210.688 69.92C209.472 67.68 207.712 65.984 205.408 64.832C203.168 63.616 200.512 63.008 197.44 63.008C192.128 63.008 187.872 64.768 184.672 68.288C181.472 71.744 179.872 76.384 179.872 82.208C179.872 88.416 181.536 93.28 184.864 96.8C188.256 100.256 192.896 101.984 198.784 101.984C202.816 101.984 206.208 100.96 208.96 98.912C211.776 96.864 213.824 93.92 215.104 90.08H194.272V77.984H229.984V93.248C228.768 97.344 226.688 101.152 223.744 104.672C220.864 108.192 217.184 111.04 212.704 113.216C208.224 115.392 203.168 116.48 197.536 116.48C190.88 116.48 184.928 115.04 179.68 112.16C174.496 109.216 170.432 105.152 167.488 99.968C164.608 94.784 163.168 88.864 163.168 82.208C163.168 75.552 164.608 69.632 167.488 64.448C170.432 59.2 174.496 55.136 179.68 52.256C184.864 49.312 190.784 47.84 197.44 47.84C205.504 47.84 212.288 49.792 217.792 53.696C223.36 57.6 227.04 63.008 228.832 69.92H210.688ZM235.813 89.12C235.813 83.616 236.837 78.784 238.885 74.624C240.997 70.464 243.845 67.264 247.429 65.024C251.013 62.784 255.013 61.664 259.429 61.664C263.205 61.664 266.501 62.432 269.317 63.968C272.197 65.504 274.405 67.52 275.941 70.016V62.432H292.357V116H275.941V108.416C274.341 110.912 272.101 112.928 269.221 114.464C266.405 116 263.109 116.768 259.333 116.768C254.981 116.768 251.013 115.648 247.429 113.408C243.845 111.104 240.997 107.872 238.885 103.712C236.837 99.488 235.813 94.624 235.813 89.12ZM275.941 89.216C275.941 85.12 274.789 81.888 272.485 79.52C270.245 77.152 267.493 75.968 264.229 75.968C260.965 75.968 258.181 77.152 255.877 79.52C253.637 81.824 252.517 85.024 252.517 89.12C252.517 93.216 253.637 96.48 255.877 98.912C258.181 101.28 260.965 102.464 264.229 102.464C267.493 102.464 270.245 101.28 272.485 98.912C274.789 96.544 275.941 93.312 275.941 89.216ZM326.025 116.768C321.353 116.768 317.193 115.968 313.545 114.368C309.897 112.768 307.017 110.592 304.905 107.84C302.793 105.024 301.609 101.888 301.353 98.432H317.577C317.769 100.288 318.633 101.792 320.169 102.944C321.705 104.096 323.593 104.672 325.833 104.672C327.881 104.672 329.449 104.288 330.537 103.52C331.689 102.688 332.265 101.632 332.265 100.352C332.265 98.816 331.465 97.696 329.865 96.992C328.265 96.224 325.673 95.392 322.089 94.496C318.249 93.6 315.049 92.672 312.489 91.712C309.929 90.688 307.721 89.12 305.865 87.008C304.009 84.832 303.081 81.92 303.081 78.272C303.081 75.2 303.913 72.416 305.577 69.92C307.305 67.36 309.801 65.344 313.065 63.872C316.393 62.4 320.329 61.664 324.873 61.664C331.593 61.664 336.873 63.328 340.713 66.656C344.617 69.984 346.857 74.4 347.433 79.904H332.265C332.009 78.048 331.177 76.576 329.769 75.488C328.425 74.4 326.633 73.856 324.393 73.856C322.473 73.856 321.001 74.24 319.977 75.008C318.953 75.712 318.441 76.704 318.441 77.984C318.441 79.52 319.241 80.672 320.841 81.44C322.505 82.208 325.065 82.976 328.521 83.744C332.489 84.768 335.721 85.792 338.217 86.816C340.713 87.776 342.889 89.376 344.745 91.616C346.665 93.792 347.657 96.736 347.721 100.448C347.721 103.584 346.825 106.4 345.033 108.896C343.305 111.328 340.777 113.248 337.449 114.656C334.185 116.064 330.377 116.768 326.025 116.768ZM387.621 102.08V116H379.269C373.317 116 368.677 114.56 365.349 111.68C362.021 108.736 360.357 103.968 360.357 97.376V76.064H353.829V62.432H360.357V49.376H376.773V62.432H387.525V76.064H376.773V97.568C376.773 99.168 377.157 100.32 377.925 101.024C378.693 101.728 379.973 102.08 381.765 102.08H387.621ZM405.021 56.864C402.141 56.864 399.773 56.032 397.917 54.368C396.125 52.64 395.229 50.528 395.229 48.032C395.229 45.472 396.125 43.36 397.917 41.696C399.773 39.968 402.141 39.104 405.021 39.104C407.837 39.104 410.141 39.968 411.933 41.696C413.789 43.36 414.717 45.472 414.717 48.032C414.717 50.528 413.789 52.64 411.933 54.368C410.141 56.032 407.837 56.864 405.021 56.864ZM413.181 62.432V116H396.765V62.432H413.181ZM451.957 76.064H443.125V116H426.709V76.064H420.757V62.432H426.709V60.896C426.709 54.304 428.597 49.312 432.373 45.92C436.149 42.464 441.685 40.736 448.981 40.736C450.197 40.736 451.093 40.768 451.669 40.832V54.752C448.533 54.56 446.325 55.008 445.045 56.096C443.765 57.184 443.125 59.136 443.125 61.952V62.432H451.957V76.064ZM514.391 62.432L480.791 141.44H463.127L475.415 114.176L453.623 62.432H471.959L484.343 95.936L496.631 62.432H514.391Z" fill="#401DD2"/>
</svg>
